HIERARCHY
ROOT hip
{
	OFFSET 0.000000 0.000000 0.000000
	CHANNELS 6 Xposition Yposition Zposition Xrotation Zrotation Yrotation 
	JOINT abdomen
	{
		OFFSET 0.000000 3.422050 0.000000
		CHANNELS 3 Xrotation Zrotation Yrotation 
		JOINT chest
		{
			OFFSET 0.000000 8.486693 -0.684411
			CHANNELS 3 Xrotation Zrotation Yrotation 
			JOINT neck
			{
				OFFSET 0.000000 10.266162 -0.273764
				CHANNELS 3 Xrotation Zrotation Yrotation 
				JOINT head
				{
					OFFSET 0.000000 3.148285 0.000000
					CHANNELS 3 Xrotation Zrotation Yrotation 
					End Site
					{
						OFFSET 0.000000 3.148289 0.000000
					}
				}
			}
			JOINT lCollar
			{
				OFFSET 3.422053 6.707223 -0.821293
				CHANNELS 3 Yrotation Zrotation Xrotation 
				JOINT lShldr
				{
					OFFSET 3.285171 0.000000 0.000000
					CHANNELS 3 Zrotation Yrotation Xrotation 
					JOINT lForeArm
					{
						OFFSET 10.129278 0.000000 0.000000
						CHANNELS 3 Yrotation Zrotation Xrotation 
						JOINT lHand
						{
							OFFSET 8.486692 0.000000 0.000000
							CHANNELS 3 Zrotation Yrotation Xrotation 
							End Site
							{
								OFFSET 4.106464 0.000000 0.000000
							}
						}
					}
				}
			}
			JOINT rCollar
			{
				OFFSET -3.558935 6.707223 -0.821293
				CHANNELS 3 Yrotation Zrotation Xrotation 
				JOINT rShldr
				{
					OFFSET -3.148289 0.000000 0.000000
					CHANNELS 3 Zrotation Yrotation Xrotation 
					JOINT rForeArm
					{
						OFFSET -10.266159 0.000000 0.000000
						CHANNELS 3 Yrotation Zrotation Xrotation 
						JOINT rHand
						{
							OFFSET -8.349810 0.000000 0.000000
							CHANNELS 3 Zrotation Yrotation Xrotation 
							End Site
							{
								OFFSET -4.106464 0.000000 0.000000
							}
						}
					}
				}
			}
		}
	}
	JOINT lThigh
	{
		OFFSET 5.338403 -1.642589 1.368821
		CHANNELS 3 Xrotation Zrotation Yrotation 
		JOINT lShin
		{
			OFFSET -2.053232 -20.121670 0.000000
			CHANNELS 3 Xrotation Zrotation Yrotation 
			JOINT lFoot
			{
				OFFSET 0.000000 -19.300380 -1.231939
				CHANNELS 3 Xrotation Yrotation Zrotation 
				End Site
				{
					OFFSET 0.000000 -2.463878 4.653993
				}
			}
		}
	}
	JOINT rThigh
	{
		OFFSET -5.338403 -1.642589 1.368821
		CHANNELS 3 Xrotation Zrotation Yrotation 
		JOINT rShin
		{
			OFFSET 2.053232 -20.121670 0.000000
			CHANNELS 3 Xrotation Zrotation Yrotation 
			JOINT rFoot
			{
				OFFSET 0.000000 -19.300380 -1.231939
				CHANNELS 3 Xrotation Yrotation Zrotation 
				End Site
				{
					OFFSET 0.000000 -2.463878 4.653993
				}
			}
		}
	}
}
MOTION
Frames: 13
Frame Time: 0.049989
-1.336662 24.439732 -15.153053 -20.201643 0.000000 0.000000 56.722282 0.028290 -0.098323 38.626808 0.644459 0.124422 10.379322 -1.583686 -13.228350 -36.718929 4.534764 -0.009034 -28.251040 25.141392 1.972386 -27.646856 -10.092981 -52.666954 -126.151283 4.226381 44.451149 4.764934 -6.199873 -38.673729 27.971306 -25.766954 2.371227 29.104307 11.574428 -51.622475 125.021126 -4.751741 44.350597 4.681897 -35.585335 -2.269327 7.894907 15.434962 6.951843 92.482559 4.991737 -6.952153 58.547016 15.291914 10.108972 7.160758 -16.314865 -6.627166 92.694427 -5.133991 6.960085 56.931870 -14.255102 -10.286644 
-1.336662 24.439732 -15.026096 -19.402435 0.000000 0.000000 55.657166 0.028324 -0.098403 37.960659 0.644454 0.124600 10.202108 -1.624132 -13.351948 -34.598568 4.534817 -0.009092 -29.138203 23.844427 3.106724 -27.625893 -10.076591 -52.678253 -126.165436 4.219630 44.452145 4.723350 -6.910067 -38.012733 28.753973 -24.353794 3.461766 29.104307 11.574428 -51.622475 125.034798 -4.745439 44.351681 4.110472 -34.899601 -1.336992 7.415611 15.368841 6.912414 92.482559 4.991737 -6.952153 58.537952 15.288315 10.101917 6.681549 -16.265432 -6.609414 92.694427 -5.133991 6.960085 56.931870 -14.255102 -10.286644 
-1.336662 24.439732 -14.899138 -18.602797 0.000000 0.000000 54.591019 0.028356 -0.098485 37.294266 0.644451 0.124777 10.025002 -1.664954 -13.475403 -32.470078 4.534872 -0.009148 -29.990858 22.528708 4.210865 -27.604942 -10.060197 -52.689556 -126.179604 4.212883 44.453152 4.673394 -7.620293 -37.349651 29.500759 -22.923870 4.522200 29.104307 11.574428 -51.622475 125.048500 -4.739138 44.352787 3.556850 -34.205818 -0.419864 6.936420 15.302390 6.873564 92.482559 4.991737 -6.952153 58.528904 15.284720 10.094868 6.202385 -16.215847 -6.592095 92.694427 -5.133991 6.960085 56.931870 -14.255102 -10.286644 
-1.336662 24.439732 -14.772182 -17.802811 0.000000 0.000000 53.524059 0.028387 -0.098567 36.627655 0.644450 0.124954 9.848014 -1.706151 -13.598718 -30.334902 4.534929 -0.009202 -30.809908 21.195612 5.285845 -27.583998 -10.043800 -52.700848 -126.193756 4.206132 44.454159 4.615006 -8.330354 -36.684353 30.212856 -21.478611 5.553893 29.104307 11.574428 -51.622475 125.062187 -4.732834 44.353874 3.020735 -33.504379 0.482373 6.457355 15.235619 6.835298 92.482559 4.991737 -6.952153 58.519852 15.281124 10.087815 5.723283 -16.166119 -6.575209 92.694427 -5.133991 6.960085 56.931870 -14.255102 -10.286644 
-1.336662 24.439732 -14.645224 -17.002546 0.000000 0.000000 52.456432 0.028416 -0.098649 35.960888 0.644451 0.125132 9.671136 -1.747721 -13.721885 -28.194496 4.534989 -0.009254 -31.596323 19.846558 6.332723 -27.563059 -10.027399 -52.712139 -126.207909 4.199387 44.455170 4.548130 -9.040051 -36.016739 30.891464 -20.019451 6.558191 29.104307 11.574428 -51.622475 125.075874 -4.726531 44.354958 2.501828 -32.795670 1.370038 5.978431 15.168532 6.797621 92.482559 4.991737 -6.952153 58.510803 15.277532 10.080764 5.244259 -16.116257 -6.558762 92.694427 -5.133991 6.960085 56.931870 -14.255102 -10.286644 
-1.336662 24.439732 -14.518266 -16.202095 0.000000 0.000000 51.388355 0.028444 -0.098732 35.294018 0.644454 0.125309 9.494376 -1.789663 -13.844903 -26.050339 4.535050 -0.009304 -32.351017 18.482901 7.352545 -27.542118 -10.010992 -52.723419 -126.222076 4.192637 44.456173 4.472701 -9.749184 -35.346668 31.537682 -18.547775 7.536394 29.104307 11.574428 -51.622475 125.089561 -4.720229 44.356041 1.999823 -32.080078 2.243458 5.499664 15.101140 6.760533 92.482559 4.991737 -6.952153 58.501740 15.273935 10.073708 4.765330 -16.066254 -6.542749 92.694427 -5.133991 6.960085 56.931873 -14.255103 -10.286644 
-1.336662 24.439732 -14.391309 -15.401520 0.000000 0.000000 50.320004 0.028470 -0.098816 34.627068 0.644459 0.125487 9.317738 -1.831977 -13.967780 -23.903927 4.535114 -0.009351 -33.074902 17.105991 8.346356 -27.521183 -9.994582 -52.734684 -126.236229 4.185885 44.457165 4.388659 -10.457545 -34.674023 32.152645 -17.064974 8.489787 29.104307 11.574428 -51.622475 125.103249 -4.713925 44.357128 1.514412 -31.357986 3.102963 5.021069 15.033446 6.724041 92.482559 4.991737 -6.952153 58.492687 15.270343 10.066654 4.286510 -16.016127 -6.527176 92.694427 -5.133991 6.960085 56.931870 -14.255102 -10.286644 
-1.336662 24.439732 -14.264351 -14.600904 0.000000 0.000000 49.251541 0.028495 -0.098900 33.960106 0.644467 0.125664 9.141215 -1.874661 -14.090496 -21.756760 4.535180 -0.009396 -33.768902 15.717169 9.315198 -27.500256 -9.978169 -52.745953 -126.250381 4.179138 44.458164 4.295941 -11.164937 -33.998688 32.737381 -15.572391 9.419602 29.104307 11.574428 -51.622475 125.116951 -4.707623 44.358219 1.045282 -30.629778 3.948886 4.542662 14.965461 6.688146 92.482559 4.991737 -6.952153 58.483639 15.266753 10.059602 3.807815 -15.965868 -6.512042 92.694427 -5.133991 6.960085 56.931870 -14.255102 -10.286644 
-1.336662 24.439732 -14.137394 -13.800330 0.000000 0.000000 48.183189 0.028518 -0.098984 33.293167 0.644476 0.125842 8.964815 -1.917714 -14.213061 -19.610344 4.535245 -0.009439 -34.433910 14.317740 10.260096 -27.479326 -9.961749 -52.757198 -126.264519 4.172387 44.459156 4.194484 -11.871151 -33.320526 33.292919 -14.071370 10.327050 29.104307 11.574428 -51.622475 125.130653 -4.701318 44.359303 0.592119 -29.895817 4.781564 4.064460 14.897191 6.652852 92.482559 4.991737 -6.952153 58.474583 15.263165 10.052547 3.329262 -15.915494 -6.497349 92.694427 -5.133991 6.960085 56.931870 -14.255102 -10.286644 
-1.336662 24.439732 -14.010436 -12.999872 0.000000 0.000000 47.115105 0.028539 -0.099069 32.626289 0.644487 0.126019 8.788542 -1.961135 -14.335474 -17.466187 4.535314 -0.009479 -35.070797 12.908991 11.182059 -27.458406 -9.945327 -52.768448 -126.278687 4.165637 44.460155 4.084224 -12.575987 -32.639420 33.820229 -12.563199 11.213298 29.104307 11.574428 -51.622475 125.144325 -4.695014 44.360378 0.154608 -29.156466 5.601329 3.586477 14.828638 6.618160 92.482559 4.991737 -6.952153 58.465519 15.259573 10.045490 2.850869 -15.865011 -6.483102 92.694427 -5.133991 6.960085 56.931870 -14.255102 -10.286644 
-1.336662 24.439732 -13.883478 -12.199612 0.000000 0.000000 46.047497 0.028559 -0.099154 31.959532 0.644501 0.126196 8.612393 -2.004924 -14.457729 -15.325778 4.535383 -0.009516 -35.680408 11.492180 12.082080 -27.437494 -9.928904 -52.779705 -126.292847 4.158885 44.461147 3.965097 -13.279236 -31.955248 34.320236 -11.049166 12.079473 29.104307 11.574428 -51.622475 125.158012 -4.688712 44.361465 -0.267563 -28.412077 6.408518 3.108729 14.759815 6.584076 92.482559 4.991737 -6.952153 58.456467 15.255984 10.038435 2.372650 -15.814415 -6.469296 92.694427 -5.133991 6.960085 56.931870 -14.255102 -10.286644 
-1.336662 24.439732 -13.756521 -11.399622 0.000000 0.000000 44.980515 0.028577 -0.099240 31.292921 0.644516 0.126372 8.436373 -2.049077 -14.579824 -13.190605 4.535454 -0.009551 -36.263580 10.068538 12.961126 -27.416582 -9.912474 -52.790936 -126.306992 4.152136 44.462135 3.837036 -13.980692 -31.267883 34.793804 -9.530508 12.926667 29.104307 11.574428 -51.622475 125.171700 -4.682407 44.362537 -0.674707 -27.663019 7.203464 2.631233 14.690724 6.550599 92.482559 4.991737 -6.952153 58.447411 15.252400 10.031380 1.894620 -15.763715 -6.455933 92.694427 -5.133991 6.960085 56.931870 -14.255102 -10.286644 
-1.336662 24.439732 -13.629563 -10.599985 0.000000 0.000000 43.914398 0.028594 -0.099326 30.626520 0.644534 0.126549 8.260478 -2.093595 -14.701757 -11.062118 4.535526 -0.009583 -36.821095 8.639270 13.820151 -27.395676 -9.896040 -52.802174 -126.321152 4.145385 44.463127 3.699976 -14.680150 -30.577187 35.241787 -8.008449 13.755940 29.104307 11.574428 -51.622475 125.185402 -4.676102 44.363621 -1.067134 -26.909628 7.986498 2.154002 14.621381 6.517735 92.482559 4.991737 -6.952153 58.438362 15.248815 10.024323 1.416797 -15.712918 -6.443015 92.694427 -5.133991 6.960085 56.931870 -14.255102 -10.286644 
